<svg width="3204" height="1812" viewBox="0 0 3204 1812" fill="none" xmlns="http://www.w3.org/2000/svg">
<path d="M543.67 0.397949L1116.07 922L554.47 1254.4L0.0698242 916L543.67 0.397949Z" fill="#F89D21"/>
<path d="M554.48 1811.2L1113.68 1025.2L556.88 1355.2L3.68018 1033.6L554.48 1811.2Z" fill="white"/>
<path d="M544.86 162.398L966.06 872.8L549.66 1134.4L146.46 872.8L544.86 162.398Z" fill="white"/>
<path d="M556.88 1698.4L844.88 1278.4L563.82 1456L286.88 1309.6L556.88 1698.4Z" fill="#F89D21"/>
<path d="M1503.58 860.4H1252.79V375.109H1503.58V453.48H1337.19V569.83H1487.9V648.201H1337.19V781.43H1503.58V860.4Z" fill="white"/>
<path d="M1634.23 453.48H1534.15V375.109H1817.49V453.48H1718.02V860.4H1634.23V453.48Z" fill="white"/>
<path d="M1924.03 860.4H1839.63V375.109H1924.03V585.504H2047.61V375.109H2131.41V860.4H2047.61V664.478H1924.03V860.4Z" fill="white"/>
<path d="M1448.72 1187.63L1448.05 1183.95C1443.36 1187.3 1435.21 1198.12 1423.61 1216.43C1412 1234.51 1405.19 1246.78 1403.18 1253.26C1390.24 1257.94 1380.19 1255.49 1373.05 1245.89C1367.02 1237.86 1359.54 1227.59 1350.62 1215.09L1328.52 1183.61L1324.17 1177.92L1319.48 1172.23L1316.46 1173.24L1315.13 1182.61C1314.46 1186.4 1314.12 1189.64 1314.12 1192.32L1308.09 1349.35L1307.09 1387.19V1433.06H1238.12V1396.23C1237.67 1394.22 1237.56 1391.32 1237.78 1387.52C1240.91 1270.33 1241.46 1170.33 1239.46 1087.52L1236.11 993.1C1235.88 983.28 1236.67 974.35 1238.45 966.32C1240.01 960.29 1243.59 956.72 1249.17 955.6C1254.75 954.26 1259.43 956.05 1263.23 960.96L1266.58 965.65L1270.59 970.33C1273.94 974.13 1276.4 977.14 1277.96 979.37L1310.77 1026.25L1343.92 1073.12C1349.72 1081.16 1356.64 1090.42 1364.68 1100.91L1385.77 1128.7C1386.44 1129.82 1387.56 1131.05 1389.12 1132.39L1391.13 1134.06L1393.47 1136.07L1395.82 1133.39L1397.83 1130.71C1399.39 1128.7 1400.62 1127.03 1401.51 1125.69L1439.68 1060.4L1477.85 995.45C1480.53 990.98 1483.99 985.51 1488.23 979.04L1498.27 963.64C1505.64 963.64 1510.33 967.1 1512.33 974.02C1514.57 980.94 1516.02 989.42 1516.69 999.46L1517.69 1012.52L1518.36 1025.24C1521.93 1083.06 1523.94 1154.71 1524.39 1240.2L1525.73 1392.54L1526.06 1392.88V1436.4H1464.79L1462.45 1386.18L1450.39 1198.01C1450.17 1196.23 1449.83 1193.88 1449.39 1190.98L1448.72 1187.63Z" fill="white"/>
<path d="M1866.57 1367.43L1873.27 1370.11L1879.63 1372.79L1882.98 1374.13L1887 1375.8L1886.66 1385.51V1395.22C1886.66 1403.03 1886.33 1409.51 1885.66 1414.64C1884.1 1427.81 1876.06 1433.95 1861.55 1433.06C1844.59 1432.16 1828.85 1423.57 1814.34 1407.27C1812.33 1405.27 1809.99 1402.36 1807.31 1398.57L1803.96 1394.22L1800.62 1389.53C1797.27 1385.51 1794.37 1383.39 1791.91 1383.17C1789.45 1382.94 1786.22 1384.62 1782.2 1388.19L1763.78 1404.6C1756.87 1410.85 1750.73 1416.09 1745.37 1420.33C1730.64 1431.94 1712.22 1437.3 1690.12 1436.4C1660.21 1434.84 1637.67 1421.23 1622.49 1395.56C1607.98 1371.23 1598.61 1349.57 1594.37 1330.6L1586.66 1295.78L1579.3 1260.96C1574.39 1234.84 1571.04 1211.4 1569.25 1190.65C1567.91 1175.91 1566.8 1158.28 1565.91 1137.74L1565.24 1111.63L1564.23 1085.18L1561.89 1025.24L1559.88 965.31C1559.88 964.2 1559.88 962.74 1559.88 960.96L1560.21 958.62V955.6C1566.91 955.16 1574.5 954.6 1582.98 953.93L1605.41 952.59L1606.75 963.3L1607.76 974.02L1610.1 1016.2L1612.78 1058.73C1614.79 1092.66 1616.8 1121 1618.81 1143.77C1623.27 1196.9 1633.76 1252.03 1650.28 1309.17C1653.85 1321.45 1659.88 1336.07 1668.36 1353.03C1671.04 1358.39 1675.39 1361.96 1681.42 1363.75C1685.21 1364.86 1690.79 1365.42 1698.16 1365.42C1704.86 1365.42 1712.22 1362.41 1720.26 1356.38C1727.85 1350.36 1732.76 1343.99 1734.99 1337.3C1742.36 1316.54 1745.82 1295.44 1745.37 1274.02C1745.37 1266.43 1745.93 1256.83 1747.04 1245.22L1749.72 1216.43L1753.07 1167.54C1754.19 1147.68 1755.3 1131.49 1756.42 1118.99C1759.32 1084.62 1757.87 1039.42 1752.07 983.39L1750.39 964.31L1749.39 954.6L1748.38 944.22C1767.8 942.21 1782.42 942.32 1792.24 944.55C1798.49 945.89 1802.18 951.14 1803.29 960.29C1808.2 1000.02 1811.22 1046.56 1812.33 1099.91C1812.78 1118.21 1813 1141.54 1813 1169.89L1813.34 1239.53L1813.67 1269.33C1813.9 1280.49 1814.34 1290.31 1815.01 1298.79C1817.02 1324.91 1827.62 1344.78 1846.82 1358.39C1850.17 1360.62 1854.41 1362.86 1859.54 1365.09L1866.57 1367.43Z" fill="white"/>
<path d="M2299.16 1096.23C2308.09 1145.11 2315.35 1208.06 2320.93 1285.07C2322.27 1300.91 2323.49 1315.87 2324.61 1329.93C2326.17 1348.01 2327.51 1363.86 2328.63 1377.48C2331.53 1412.74 2332.65 1431.38 2331.98 1433.39C2330.86 1437.41 2315.12 1437.41 2284.77 1433.39L2284.1 1409.95L2282.76 1390.53L2281.75 1371.45L2280.75 1348.68C2280.3 1339.53 2279.74 1331.83 2279.07 1325.58L2273.05 1269.33C2270.37 1247.9 2267.13 1229.26 2263.34 1213.41C2261.77 1207.39 2259.99 1198.68 2257.98 1187.3L2255.3 1174.24L2252.62 1160.85C2245.26 1127.36 2227.73 1098.24 2200.06 1073.46C2194.25 1068.32 2188.11 1066.32 2181.64 1067.43C2177.62 1068.1 2172.94 1069.11 2167.58 1070.45L2153.85 1074.13C2146.48 1076.14 2141.13 1082.39 2137.78 1092.88C2123.72 1138.41 2113.9 1189.75 2108.32 1246.9L2107.65 1253.59C2107.42 1256.27 2107.09 1258.61 2106.64 1260.62C2105.97 1266.65 2105.53 1271.67 2105.3 1275.69H2082.53L2063.11 1213.41C2063.11 1213.41 2063.23 1213.19 2063.45 1212.74L2050.06 1170.89L2037 1128.7C2032.31 1113.53 2021.6 1099.24 2004.86 1085.85C2000.84 1082.72 1996.93 1082.28 1993.14 1084.51C1989.34 1086.52 1986.78 1090.65 1985.44 1096.9L1981.75 1111.96L1978.74 1127.03C1976.28 1138.64 1974.61 1148.79 1973.72 1157.5L1971.71 1178.93C1969.25 1242.1 1967.58 1327.59 1966.69 1435.4C1961.11 1436.74 1953.96 1436.74 1945.26 1435.4L1944.92 1435.73H1942.58C1932.98 1436.63 1926.95 1435.62 1924.5 1432.72C1922.04 1429.82 1920.93 1422.57 1921.15 1410.96L1922.82 1335.62L1924.83 1260.29L1926.84 1174.91L1929.19 1117.66C1934.99 1050.02 1945.82 1006.05 1961.66 985.74C1975.73 967.88 1991.13 956.83 2007.87 952.59C2013.9 951.25 2019.92 950.69 2025.95 950.91C2028.18 951.14 2030.41 951.36 2032.65 951.58C2034.21 952.03 2035.77 952.48 2037.33 952.92L2039.01 953.26C2049.5 961.74 2057.09 970.78 2061.78 980.38C2063.78 984.4 2066.02 989.42 2068.47 995.45L2074.83 1010.18L2089.57 1043.66C2091.57 1047.9 2093.47 1050.36 2095.26 1051.03C2097.27 1051.7 2099.83 1050.69 2102.96 1048.01C2108.76 1042.88 2113.67 1036.96 2117.69 1030.27C2126.84 1013.97 2140.57 995.33 2158.87 974.35C2163.56 968.99 2167.24 965.09 2169.92 962.63C2174.16 958.39 2178.29 955.04 2182.31 952.59C2189.01 948.35 2197.04 946.45 2206.42 946.9C2219.59 947.34 2230.3 953.15 2238.56 964.31L2250.61 980.38C2255.08 986.63 2258.87 992.21 2262 997.12C2270.48 1009.62 2277.06 1021.78 2281.75 1033.62C2289.34 1052.14 2295.15 1073.01 2299.16 1096.23Z" fill="white"/>
<path d="M2470.93 1192.99C2476.95 1195.22 2481.86 1197.34 2485.66 1199.35C2506.19 1210.07 2522.04 1225.58 2533.2 1245.89C2544.81 1267.32 2549.05 1289.98 2545.93 1313.86C2541.02 1348.01 2530.08 1377.36 2513.11 1401.92C2506.64 1411.52 2498.49 1418.55 2488.67 1423.01C2473.49 1429.93 2449.83 1434.28 2417.69 1436.07C2409.43 1436.52 2401.06 1436.52 2392.58 1436.07C2388.56 1435.85 2385.77 1435.07 2384.21 1433.73C2382.87 1432.39 2381.98 1429.82 2381.53 1426.02C2373.05 1359.95 2369.92 1303.37 2372.15 1256.27C2374.61 1202.92 2374.72 1152.59 2372.49 1105.27C2371.37 1084.95 2370.37 1060.18 2369.48 1030.94L2366.8 956.61C2366.8 956.61 2367.13 955.6 2367.8 953.59L2373.16 953.93L2378.85 954.26C2404.07 956.72 2432.53 962.97 2464.23 973.01C2481.86 978.59 2495.14 991.65 2504.07 1012.19C2508.76 1022.45 2512.33 1036.52 2514.79 1054.37C2519.25 1085.62 2511.1 1112.74 2490.35 1135.74C2476.73 1150.91 2463.34 1162.97 2450.17 1171.9C2449.94 1172.12 2446.37 1174.91 2439.45 1180.27C2441.02 1180.94 2442.69 1181.61 2444.48 1182.28L2448.83 1184.28C2451.95 1185.4 2454.41 1186.4 2456.19 1187.3L2463.56 1189.98L2470.93 1192.99Z" fill="white"/>
<path d="M2899.83 1402.92C2900.28 1408.95 2898.27 1412.97 2893.8 1414.98L2884.43 1418.99C2880.86 1420.56 2877.62 1421.67 2874.72 1422.34C2866.68 1424.13 2855.41 1426.02 2840.9 1428.03C2832.64 1429.15 2825.17 1425.69 2818.47 1417.65C2816.91 1415.65 2814.79 1412.86 2812.11 1409.28L2806.08 1400.91C2800.72 1394.44 2796.04 1390.98 2792.02 1390.53C2787.78 1390.09 2782.87 1392.43 2777.29 1397.57L2775.95 1398.57L2775.28 1399.57C2768.8 1408.5 2760.21 1415.42 2749.5 1420.33C2745.26 1422.34 2740.34 1424.24 2734.76 1426.02L2719.36 1430.04C2708.87 1432.5 2696.37 1434.51 2681.86 1436.07C2665.79 1437.86 2652.29 1431.83 2641.35 1417.99C2619.47 1391.43 2604.52 1359.84 2596.48 1323.23C2589.34 1290.42 2585.43 1255.27 2584.76 1217.77C2584.54 1204.6 2584.65 1188.3 2585.1 1168.88L2585.77 1145.11V1121.67C2591.8 1088.86 2598.27 1063.53 2605.19 1045.67C2615.23 1020.22 2629.07 999.91 2646.71 984.73L2652.06 980.38C2654.07 978.59 2655.97 977.37 2657.76 976.7C2688.56 962.86 2715.57 957.39 2738.78 960.29L2758.54 962.63C2766.13 963.53 2772.6 964.42 2777.96 965.31C2785.32 966.65 2790.01 968.66 2792.02 971.34C2794.25 973.79 2795.81 979.49 2796.71 988.41C2797.38 995.78 2797.93 1004.04 2798.38 1013.19L2799.72 1080.82C2800.17 1107.83 2800.95 1130.49 2802.06 1148.79C2804.52 1184.28 2808.98 1222.12 2815.46 1262.3C2816.8 1270.33 2819.25 1279.71 2822.82 1290.42L2828.18 1304.15L2833.2 1317.88C2837 1328.15 2843.8 1333.28 2853.63 1333.28C2865.68 1333.28 2874.83 1333.17 2881.08 1332.94C2887.33 1332.5 2891.13 1332.94 2892.47 1334.28C2894.03 1335.85 2895.14 1339.86 2895.81 1346.34L2899.83 1402.92Z" fill="white"/>
<path d="M3181.42 1435.06C3180.08 1436.18 3177.17 1436.63 3172.71 1436.4L3163 1435.4L3153.29 1434.73L3128.18 1433.39C3118.36 1432.72 3109.99 1432.39 3103.07 1432.39C3070.48 1431.72 3032.09 1431.38 2987.89 1431.38L2949.05 1432.72C2947.04 1432.72 2944.7 1432.5 2942.02 1432.05L2933.98 1430.71C2935.77 1422.45 2937.78 1412.86 2940.01 1401.92L2942.69 1387.86L2945.7 1373.79L2949.72 1374.13H2953.4L2960.1 1374.46L2983.54 1376.47L3006.97 1378.15C3014.34 1378.59 3018.8 1378.15 3020.37 1376.81C3022.15 1375.24 3023.38 1370.89 3024.05 1363.75C3026.5 1335.18 3028.29 1311.29 3029.41 1292.1L3033.09 1220.78C3034.65 1191.09 3035.99 1167.32 3037.11 1149.46C3038.22 1134.28 3039.67 1116.43 3041.46 1095.89L3046.48 1042.66C3046.93 1035.51 3046.37 1030.71 3044.81 1028.26C3043.02 1025.58 3038.67 1023.46 3031.75 1021.9L3025.05 1020.56L2977.17 1014.87L2975.84 1004.82C2975.39 1003.26 2975.17 1001.14 2975.17 998.46C2975.17 996.67 2975.28 994.55 2975.5 992.1C2976.17 987.19 2977.06 981.16 2978.18 974.02L2979.85 964.64L2981.53 954.93L3203.18 955.27V967.99C3203.62 971.34 3203.85 973.46 3203.85 974.35L3203.18 992.77C3202.73 1000.8 3202.17 1007.61 3201.5 1013.19C3201.28 1016.09 3200.5 1019.33 3199.16 1022.9L3197.15 1027.92L3195.14 1032.28C3192.91 1036.96 3188.78 1039.31 3182.75 1039.31L3160.99 1038.64L3143.25 1037.97C3136.33 1037.52 3130.52 1037.41 3125.83 1037.63C3119.81 1037.86 3115.9 1038.97 3114.12 1040.98C3112.11 1042.99 3110.99 1047.01 3110.77 1053.03L3109.76 1089.53C3109.32 1104.26 3108.76 1116.43 3108.09 1126.03L3104.07 1185.96L3100.39 1245.56L3097.04 1305.49L3094.7 1365.42C3094.25 1371.45 3094.7 1375.13 3096.04 1376.47C3097.38 1378.03 3101.06 1378.93 3107.08 1379.15L3140.9 1380.49L3174.38 1381.49H3187.11C3186.44 1388.41 3185.99 1393.55 3185.77 1396.9L3183.76 1426.36C3183.54 1431.05 3182.75 1433.95 3181.42 1435.06Z" fill="white"/>
</svg>
